<?xml version="1.0" encoding="utf-8"?>
<!-- Generator: Adobe Adobe Illustrator 29.2.0, SVG Export Plug-In . SVG Version: 6.00 Build 0)  -->
<svg version="1.1" id="Layer_1" xmlns="http://www.w3.org/2000/svg" xmlns:xlink="http://www.w3.org/1999/xlink" x="0px" y="0px"
	 viewBox="0 0 500 500" style="enable-background:new 0 0 500 500;" xml:space="preserve">
<style type="text/css">
	.st0{fill:#DDDDDD;stroke:#000000;stroke-miterlimit:10;}
	.st1{clip-path:url(#SVGID_00000109020637374880787840000016675006381035978631_);}
	.st2{fill:#0D00FF;}
	.st3{clip-path:url(#SVGID_00000118395486285171736610000016525133931223642768_);}
	.st4{fill:#FF2A0C;}
	.st5{fill:none;}
</style>
<g>
	<defs>
		<rect id="SVGID_1_" x="-16" y="-592" width="500" height="500"/>
	</defs>
	<clipPath id="SVGID_00000045582410170090532370000011220883763119398055_">
		<use xlink:href="#SVGID_1_"  style="overflow:visible;"/>
	</clipPath>
	<g style="clip-path:url(#SVGID_00000045582410170090532370000011220883763119398055_);">
		<path d="M212.2,159.33c11.15-0.58,15.05-6.22,12.86-17.6c-1.47-7.65-10.02-11.51-15.7-7.08c-2.84,2.22-3.37,5.46-3.09,9.1
			c0.34,4.52,3.31,4.1,6.03,4.5c2.22,0.33,5.98-1.3,6.11,2.52c0.16,4.52-3.66,3.39-6.28,3.48c-1.68,0.06-4.29-1.95-4.68,1.42
			C207.14,158.34,209.73,158.68,212.2,159.33z"/>
		<path d="M272.63,130.13c4.19,5.36,1.93,7.41-2.61,8.33c-1.62,0.33-3.7,0.59-3.81,2.79c-0.12,2.36,1.97,2.77,3.59,2.89
			c8.36,0.64,3.39,9.96,8.28,15.36c2.49-9.65,0.92-18.44,1.45-26.94c0.38-6.14-1.98-8.75-7.23-8.03c-2.3,0.32-6.19-1.21-6.45,1.93
			C265.45,131.27,270.01,128.5,272.63,130.13z"/>
		<path d="M238.81,131.42c-0.89-3.21-2.45-6.49-4.33-3.31c-1.79,3.04-8.19,4.85-4.8,9.69c4.38,6.24,4.49,11.32,0.06,16.91
			c-0.79,1-1.68,1.96-1.01,3.02c0.52,0.83,1.81,1.25,2.81,1.4c2.11,0.32,4.1-0.92,4.75-2.89
			C238.87,148.49,240.11,140.43,238.81,131.42z"/>
		<path d="M243.93,134.81c0.04,7.08,0.04,13.29,0.16,19.49c0.03,1.46,0.05,3.35,1.73,3.73c2.29,0.52,2.74-1.73,2.91-3.43
			c0.89-8.96,0.89-17.95,0.06-26.92c-0.16-1.76-0.63-4.02-2.76-3.74c-2.18,0.28-1.83,2.68-1.98,4.41
			C243.89,130.19,243.96,132.06,243.93,134.81z"/>
		<path d="M189.82,136.5c9.7,4.04,4.49,15,8.5,23.36c3.73-8.71,3.24-16.66,1.59-23.44C198.87,132.19,193.37,131.27,189.82,136.5z"/>
		<path d="M258.75,157.23c0.62-6.49,0.87-12.33,0.95-18.19c0.02-1.71,0.27-4.17-1.91-4.36c-2.3-0.2-2.51,2.41-2.21,3.98
			C256.81,145.02,252.24,152.46,258.75,157.23z"/>
	</g>
</g>
<g>
	<path class="st5" d="M336.69,500c-112.57,0-224.63,0-336.69,0C0,333.33,0,166.67,0,0c166.67,0,333.33,0,500,0
		c0,166.67,0,333.33,0,500C445.73,500,391.46,500,336.69,500z M163.21,128.4c-0.87,0.51-1.81,0.93-2.59,1.55
		c-22.91,18.12-40.63,40.18-50.83,67.79c-1.77,4.8-4.26,9.58-4.04,14.89c0.21,5.1,4.19,8.8,9.45,9.38c5.4,0.59,9.62-2.31,11.66-8.82
		c3.22-10.26,7.48-19.99,13.05-29.19c13.1-21.64,31.22-37.8,53.57-49.41c7.29-3.79,15.32-5.68,22.75-9.05
		c5.29-2.4,7.19-7.38,5.26-12.89c-1.83-5.21-6.35-7.87-11.84-6.46C192.98,110.47,177.72,117.83,163.21,128.4z M373.35,200.7
		c1.85,5.19,3.4,10.52,5.64,15.53c2.41,5.4,8.12,7.09,14.13,4.79c4.11-1.57,6.52-6.79,5.28-11.75c-1.91-7.63-4.75-14.94-8.09-22.04
		c-10.27-21.89-25.11-40.18-44.01-55.16c-15.39-12.2-32.6-20.9-51.58-25.99c-4.54-1.22-8.46,0.62-10.89,4.4
		c-2.41,3.74-2.32,7.84,0.32,11.77c2.16,3.22,5.57,4.1,8.87,5.14c14.18,4.45,27.16,11.27,38.91,20.28
		C350.07,161.56,363.99,178.88,373.35,200.7z M366.59,352.93c14.9-16.79,25.7-35.85,31.66-57.53c1.67-6.07-1.07-10.88-6.71-12.72
		c-5.66-1.85-10.82,0.4-12.88,6.25c-4.52,12.8-9.51,25.36-17.36,36.54c-11.79,16.81-26.23,30.8-44.25,40.88
		c-8.64,4.83-17.79,8.37-27.19,11.48c-6.56,2.17-8.9,7.54-6.98,13.42c1.87,5.71,6.48,7.99,13.27,6.35
		c10.64-2.57,20.52-7.07,30.07-12.26C341.39,377.09,354.49,366.19,366.59,352.93z M212.15,398.39c3.65-0.69,7.22-1.29,8.97-5.4
		c3.17-7.43-0.17-13.69-9.03-16.22c-16.01-4.58-30.2-12.59-42.95-23.11c-20.12-16.61-34.45-37.19-42.1-62.3
		c-1.06-3.48-2.66-6.9-6.58-8.4c-4.35-1.66-8.22-1.03-11.62,2.13c-4.11,3.82-3.36,8.47-1.87,13.04
		c6.78,20.78,17.09,39.51,31.94,55.72C158.84,375.61,182.52,391.09,212.15,398.39z M262.45,413.81c0-22.66,0-45.32-0.01-67.99
		c0-3.76-0.33-7.49-3.81-9.83c-3.28-2.2-6.51-3.61-10.73-1.42c-4.7,2.45-6.33,6.04-6.33,10.97c0.03,32.06-0.01,64.13,0.03,96.19
		c0.01,7.75,3.71,11.99,10.34,12.17c6.63,0.18,10.43-4.06,10.48-11.9C262.49,432.95,262.45,423.88,262.45,413.81z M262.45,139.62
		c0-25.86,0.03-51.72-0.03-77.58c-0.02-7.21-4.04-11.79-10.11-11.92c-6.2-0.13-10.68,4.72-10.69,11.93
		c-0.05,32.24-0.06,64.48,0.01,96.72c0.02,7.36,4.32,11.93,10.72,11.92c6.07-0.02,9.95-4.53,10.07-11.93
		C262.52,152.72,262.45,146.67,262.45,139.62z M75.1,241.59c-4.7,0.01-9.4-0.11-14.1,0.06c-4.43,0.16-8.19,1.74-9.95,6.23
		c-3.07,7.88,1.78,14.47,10.92,14.53c18.8,0.11,37.6,0.04,56.4,0.04c13.43,0,26.86,0.04,40.29-0.04c4.75-0.03,9.03-1.26,11.07-6.18
		c3.21-7.72-2.16-14.59-11.54-14.61C130.84,241.56,103.47,241.59,75.1,241.59z M410.79,262.45c10.57,0,21.15,0.07,31.72-0.05
		c4.31-0.05,8.4-0.92,10.36-5.55c3.44-8.13-1.34-15.18-10.6-15.21c-26.51-0.1-53.03-0.04-79.54-0.04c-6.21,0-12.43-0.22-18.62,0.08
		c-8.91,0.44-13.19,9.1-8.36,16.52c2.41,3.7,6.17,4.23,10.12,4.24C367.15,262.45,388.47,262.44,410.79,262.45z"/>
	<path d="M163.5,128.18c14.22-10.35,29.48-17.7,46.17-21.99c5.49-1.41,10.01,1.25,11.84,6.46c1.93,5.51,0.03,10.49-5.26,12.89
		c-7.44,3.37-15.46,5.26-22.75,9.05c-22.35,11.61-40.47,27.77-53.57,49.41c-5.57,9.2-9.83,18.93-13.05,29.19
		c-2.04,6.51-6.26,9.42-11.66,8.82c-5.27-0.58-9.24-4.29-9.45-9.38c-0.22-5.31,2.27-10.09,4.04-14.89
		c10.2-27.61,27.92-49.67,50.83-67.79C161.4,129.32,162.34,128.91,163.5,128.18z"/>
	<path d="M373.18,200.35c-9.19-21.47-23.11-38.78-41.25-52.7c-11.75-9.01-24.73-15.83-38.91-20.28c-3.3-1.04-6.71-1.91-8.87-5.14
		c-2.64-3.93-2.72-8.03-0.32-11.77c2.43-3.78,6.34-5.61,10.89-4.4c18.98,5.09,36.19,13.79,51.58,25.99
		c18.9,14.99,33.74,33.27,44.01,55.16c3.34,7.11,6.18,14.41,8.09,22.04c1.24,4.96-1.17,10.18-5.28,11.75
		c-6.01,2.3-11.72,0.61-14.13-4.79C376.76,211.21,375.2,205.89,373.18,200.35z"/>
	<path d="M366.37,353.22c-11.88,12.96-24.98,23.87-40.15,32.11c-9.55,5.19-19.44,9.7-30.07,12.26c-6.8,1.64-11.41-0.64-13.27-6.35
		c-1.92-5.88,0.42-11.25,6.98-13.42c9.4-3.11,18.55-6.65,27.19-11.48c18.03-10.08,32.46-24.07,44.25-40.88
		c7.85-11.18,12.84-23.74,17.36-36.54c2.07-5.85,7.22-8.1,12.88-6.25c5.64,1.84,8.37,6.66,6.71,12.72
		C392.28,317.08,381.49,336.15,366.37,353.22z"/>
	<path d="M211.73,398.35c-29.21-7.26-52.89-22.75-72.82-44.51c-14.85-16.22-25.16-34.95-31.94-55.72
		c-1.49-4.57-2.24-9.22,1.87-13.04c3.4-3.16,7.27-3.79,11.62-2.13c3.92,1.49,5.52,4.92,6.58,8.4c7.65,25.11,21.98,45.69,42.1,62.3
		c12.76,10.53,26.95,18.54,42.95,23.11c8.86,2.54,12.2,8.79,9.03,16.22C219.36,397.09,215.8,397.7,211.73,398.35z"/>
	<path class="st4" d="M262.45,414.31c0,9.57,0.04,18.63-0.02,27.7c-0.05,7.84-3.85,12.08-10.48,11.9
		c-6.63-0.18-10.33-4.42-10.34-12.17c-0.04-32.06,0-64.13-0.03-96.19c0-4.93,1.62-8.53,6.33-10.97c4.22-2.19,7.45-0.78,10.73,1.42
		c3.48,2.33,3.81,6.06,3.81,9.83C262.45,368.49,262.45,391.15,262.45,414.31z"/>
	<path class="st4" d="M262.45,140.12c0,6.55,0.07,12.59-0.03,18.64c-0.12,7.4-4,11.91-10.07,11.93
		c-6.41,0.02-10.71-4.56-10.72-11.92c-0.07-32.24-0.06-64.48-0.01-96.72c0.01-7.22,4.49-12.06,10.69-11.93
		c6.07,0.13,10.1,4.71,10.11,11.92C262.48,87.9,262.45,113.76,262.45,140.12z"/>
	<path class="st4" d="M75.61,241.59c27.87,0,55.23-0.03,82.59,0.02c9.39,0.02,14.75,6.89,11.54,14.61
		c-2.04,4.92-6.32,6.16-11.07,6.18c-13.43,0.08-26.86,0.04-40.29,0.04c-18.8,0-37.6,0.07-56.4-0.04
		c-9.14-0.06-13.99-6.65-10.92-14.53c1.75-4.49,5.51-6.07,9.95-6.23C65.7,241.48,70.4,241.6,75.61,241.59z"/>
	<path class="st4" d="M410.28,262.45c-21.82,0-43.13,0-64.44-0.02c-3.95,0-7.71-0.53-10.12-4.24c-4.82-7.42-0.55-16.08,8.36-16.52
		c6.19-0.31,12.42-0.08,18.62-0.08c26.52,0,53.03-0.05,79.54,0.04c9.26,0.03,14.04,7.08,10.6,15.21c-1.96,4.63-6.04,5.51-10.36,5.55
		C431.93,262.52,421.36,262.44,410.28,262.45z"/>
	<path d="M340.15,208.24c-5.84-13.65-14.7-24.67-26.23-33.51c-7.47-5.73-15.72-10.07-24.74-12.9c-2.1-0.66-4.26-1.22-5.64-3.27
		c-1.68-2.5-1.73-5.1-0.2-7.49c1.54-2.4,4.03-3.57,6.92-2.8c12.07,3.24,23.02,8.77,32.8,16.53c12.02,9.53,21.46,21.16,27.99,35.08
		c2.12,4.52,3.93,9.17,5.14,14.02c0.79,3.15-0.75,6.47-3.36,7.47c-3.82,1.46-7.45,0.39-8.99-3.05
		C342.42,215.15,341.43,211.76,340.15,208.24z"/>
	<path d="M318.6,217.97c-3.68-8.6-9.26-15.54-16.53-21.12c-4.71-3.61-9.91-6.35-15.59-8.13c-1.32-0.41-2.69-0.77-3.55-2.06
		c-1.06-1.58-1.09-3.22-0.13-4.72c0.97-1.51,2.54-2.25,4.36-1.76c7.6,2.04,14.5,5.53,20.67,10.42c7.58,6.01,13.52,13.33,17.64,22.11
		c1.34,2.85,2.48,5.78,3.24,8.83c0.5,1.99-0.47,4.08-2.12,4.71c-2.41,0.92-4.7,0.24-5.66-1.92
		C320.04,222.33,319.41,220.19,318.6,217.97z"/>
	<path d="M209.18,164.14c-13.65,5.84-24.67,14.7-33.51,26.23c-5.73,7.47-10.07,15.72-12.9,24.74c-0.66,2.1-1.22,4.26-3.27,5.64
		c-2.5,1.68-5.1,1.73-7.49,0.2c-2.4-1.54-3.57-4.03-2.8-6.92c3.24-12.07,8.77-23.02,16.53-32.8c9.53-12.02,21.16-21.46,35.08-27.99
		c4.52-2.12,9.17-3.93,14.02-5.14c3.15-0.79,6.47,0.75,7.47,3.36c1.46,3.82,0.39,7.45-3.05,8.99
		C216.08,161.86,212.7,162.85,209.18,164.14z"/>
	<path d="M218.91,185.68c-8.6,3.68-15.54,9.26-21.12,16.53c-3.61,4.71-6.35,9.91-8.13,15.59c-0.41,1.32-0.77,2.69-2.06,3.55
		c-1.58,1.06-3.22,1.09-4.72,0.13c-1.51-0.97-2.25-2.54-1.76-4.36c2.04-7.6,5.53-14.5,10.42-20.67
		c6.01-7.58,13.33-13.52,22.11-17.64c2.85-1.34,5.78-2.48,8.83-3.24c1.99-0.5,4.08,0.47,4.71,2.12c0.92,2.41,0.24,4.7-1.92,5.66
		C223.26,184.25,221.13,184.87,218.91,185.68z"/>
	<path d="M298.42,340.09c13.65-5.84,24.67-14.7,33.51-26.23c5.73-7.47,10.07-15.72,12.9-24.74c0.66-2.1,1.22-4.26,3.27-5.64
		c2.5-1.68,5.1-1.73,7.49-0.2c2.4,1.54,3.57,4.03,2.8,6.92c-3.24,12.07-8.77,23.02-16.53,32.8c-9.53,12.02-21.16,21.46-35.08,27.99
		c-4.52,2.12-9.17,3.93-14.02,5.14c-3.15,0.79-6.47-0.75-7.47-3.36c-1.46-3.82-0.39-7.45,3.05-8.99
		C291.51,342.37,294.9,341.38,298.42,340.09z"/>
	<path d="M288.69,318.55c8.6-3.68,15.54-9.26,21.12-16.53c3.61-4.71,6.35-9.91,8.13-15.59c0.41-1.32,0.77-2.69,2.06-3.55
		c1.58-1.06,3.22-1.09,4.72-0.13c1.51,0.97,2.25,2.54,1.76,4.36c-2.04,7.6-5.53,14.5-10.42,20.67
		c-6.01,7.58-13.33,13.52-22.11,17.64c-2.85,1.34-5.78,2.48-8.83,3.24c-1.99,0.5-4.08-0.47-4.71-2.12c-0.92-2.41-0.24-4.7,1.92-5.66
		C284.34,319.98,286.47,319.36,288.69,318.55z"/>
	<path d="M160.08,298.37c5.84,13.65,14.7,24.67,26.23,33.51c7.47,5.73,15.72,10.07,24.74,12.9c2.1,0.66,4.26,1.22,5.64,3.27
		c1.68,2.5,1.73,5.1,0.2,7.49c-1.54,2.4-4.03,3.57-6.92,2.8c-12.07-3.24-23.02-8.77-32.8-16.53c-12.02-9.53-21.46-21.16-27.99-35.08
		c-2.12-4.52-3.93-9.17-5.14-14.02c-0.79-3.15,0.75-6.47,3.36-7.47c3.82-1.46,7.45-0.39,8.99,3.05
		C157.8,291.46,158.79,294.85,160.08,298.37z"/>
	<path d="M181.62,288.63c3.68,8.6,9.26,15.54,16.53,21.12c4.71,3.61,9.91,6.35,15.59,8.13c1.32,0.41,2.69,0.77,3.55,2.06
		c1.06,1.58,1.09,3.22,0.13,4.72c-0.97,1.51-2.54,2.25-4.36,1.76c-7.6-2.04-14.5-5.53-20.67-10.42
		c-7.58-6.01-13.52-13.33-17.64-22.11c-1.34-2.85-2.48-5.78-3.24-8.83c-0.5-1.99,0.47-4.08,2.12-4.71c2.41-0.92,4.7-0.24,5.66,1.92
		C180.19,284.28,180.81,286.41,181.62,288.63z"/>
</g>
<g>
	<path class="st4" d="M236.32,243.28c0,3.84,0,5.12,3.52,5.12c3.36,0,4.16-0.16,5.52-0.16c4.56,0,4.72,0.72,4.72,4.32v0.72
		c0,5.76,0,6.56-5.44,6.56c-1.6,0-4.4-0.16-5.6-0.16c-2.64,0-2.72,0.56-2.72,4.64v12.16c0,3.2,0,6.4-4.8,6.4h-4
		c-4.8,0-4.8-3.2-4.8-6.4v-44c0-2.4,0-6.4,4.8-6.4h19.84c2,0,3.76,0.8,3.76,2.4v6.8c0,1.6-0.64,2-3.52,2c-2,0-2.56-0.16-6.32-0.16
		C236.32,237.12,236.32,238.56,236.32,243.28z"/>
	<path class="st4" d="M289.92,280.48c0,1.44-1.28,2.4-4.16,2.4h-4.16c-5.12,0-5.44-1.12-7.2-6.32c-3.6-10.48-4.96-17.68-7.28-17.68
		c-0.48,0-0.64,0.72-0.64,1.76s0.16,2.48,0.16,3.84v12c0,3.2,0,6.4-4.8,6.4h-4c-4.8,0-4.8-3.2-4.8-6.4v-44c0-3.2,0-6.4,4.8-6.4h4
		c4.8,0,4.8,3.2,4.8,6.4c0,14.16,0,14.16,0.4,14.16c2.4,0,4.64-9.44,5.44-11.36c2.64-6.32,2.88-9.2,6.96-9.2h4.64
		c2.72,0,4.96,0,4.96,2.24c0,0.96-0.4,2.32-1.36,4.24c-2.56,5.28-9.6,17.92-9.6,18.4c0,0.32,0.32,0.8,0.88,2
		C279.76,254.72,289.68,276.4,289.92,280.48z"/>
</g>
</svg>
