<?xml version="1.0" encoding="utf-8"?>
<!-- Generator: Adobe Adobe Illustrator 29.2.0, SVG Export Plug-In . SVG Version: 6.00 Build 0)  -->
<svg version="1.1" id="Layer_1" xmlns="http://www.w3.org/2000/svg" xmlns:xlink="http://www.w3.org/1999/xlink" x="0px" y="0px"
	 viewBox="0 0 500 500" style="enable-background:new 0 0 500 500;" xml:space="preserve">
<style type="text/css">
	.st0{fill:#DDDDDD;stroke:#000000;stroke-miterlimit:10;}
	.st1{clip-path:url(#SVGID_00000160889767256674517540000005602125798575568779_);}
	.st2{fill:#0D00FF;}
	.st3{clip-path:url(#SVGID_00000011721477751009833640000016822155746440066472_);}
	.st4{fill:#FF2A0C;}
	.st5{fill:none;}
</style>
<g>
	<path class="st4" d="M76.08,329.1c0,3.84,0,5.12,3.52,5.12c3.36,0,4.16-0.16,5.52-0.16c4.56,0,4.72,0.72,4.72,4.32v0.72
		c0,5.76,0,6.56-5.44,6.56c-1.6,0-4.4-0.16-5.6-0.16c-2.64,0-2.72,0.56-2.72,4.64v12.16c0,3.2,0,6.4-4.8,6.4h-4
		c-4.8,0-4.8-3.2-4.8-6.4v-44c0-2.4,0-6.4,4.8-6.4h19.84c2,0,3.76,0.8,3.76,2.4v6.8c0,1.6-0.64,2-3.52,2c-2,0-2.56-0.16-6.32-0.16
		C76.08,322.94,76.08,324.38,76.08,329.1z"/>
	<path class="st4" d="M106.41,362.3c0,3.2,0,6.4-4.8,6.4h-4c-4.8,0-4.8-3.2-4.8-6.4v-44c0-3.2,0-6.4,4.8-6.4h4
		c4.8,0,4.8,3.2,4.8,6.4V362.3z"/>
	<path class="st4" d="M133.2,357.1c3.36,0,3.76,1.76,3.76,4.16v1.04c0,3.2,0,6.4-4.8,6.4h-18.08c-4.8,0-4.8-3.2-4.8-6.4v-44
		c0-3.2,0-6.4,4.8-6.4h4c4.8,0,4.8,3.2,4.8,6.4v34.48c0,1.92,0,4.4,2.48,4.48C129.6,357.26,131.52,357.1,133.2,357.1z"/>
	<path class="st4" d="M162.72,357.1c3.36,0,3.76,1.76,3.76,4.16v1.04c0,3.2,0,6.4-4.8,6.4H143.6c-4.8,0-4.8-3.2-4.8-6.4v-44
		c0-3.2,0-6.4,4.8-6.4h4c4.8,0,4.8,3.2,4.8,6.4v34.48c0,1.92,0,4.4,2.48,4.48C159.12,357.26,161.04,357.1,162.72,357.1z"/>
	<path class="st4" d="M181.92,354.06c0.16,1.76,1.76,2.64,3.36,2.64c4.56,0,6.08-0.16,7.76-0.16c3.36,0,4.4,0.96,4.4,3.36v5.6
		c0,2.4-0.8,3.2-3.2,3.2h-21.12c-4.8,0-4.8-4.8-4.8-6.4v-44c0-3.2,0-6.4,4.8-6.4h20.64c2,0,3.76,0.8,3.76,2.4v6.8
		c0,1.92-1.6,2-3.6,2c-3.12,0-5.6-0.16-7.6-0.16c-4.4,0-4.4,1.6-4.4,4.16c0,5.2,0,6.56,4,6.56c4.96,0,5.76-0.16,7.6-0.16
		c2.8,0,2.96,2.8,2.96,3.68v5.12c0,2.4-1.68,2.56-3.68,2.56c-4.08,0-6.64-0.16-8.32-0.16c-2.56,0-2.56,1.12-2.56,3.76V354.06z"/>
	<path class="st4" d="M220.64,311.9c11.92,0,15.28,8.56,15.28,18c0,5.76-0.08,9.44-4.64,13.28c-2.24,1.92-3.68,0.8-3.68,3.84
		c0,3.28,1.04,7.28,3.68,7.28c1.44,0,2.32-0.4,2.56-0.4c2.56,0,2.96,2.16,2.96,5.84c0,1.76-0.08,3.92-0.08,6.32
		c0,1.6-0.64,3.04-4.8,3.04c-7.36,0-11.12-5.44-12.64-11.36c-1.92-7.44-4.32-8.72-4.8-8.72c-0.64,0-0.64,1.28-0.64,1.92v11.36
		c0,3.2,0,6.4-4.8,6.4h-5.6c-3.2,0-3.2-3.2-3.2-6.4v-44c0-3.2,0-6.4,4.8-6.4H220.64z M213.76,326.14c0,1.04,0.08,2.88,0.08,4.56
		c0,1.6-0.08,3.04-0.08,4c0,2.64,0.48,3.12,3.68,3.12c3.6,0,4.4-3.52,4.4-7.12c0-3.6-0.8-8-4.4-8
		C214.24,322.7,213.76,323.26,213.76,326.14z"/>
	<path class="st4" d="M291.92,366.3c0,1.44-1.28,2.4-4.16,2.4h-4.16c-5.12,0-5.44-1.12-7.2-6.32c-3.6-10.48-4.96-17.68-7.28-17.68
		c-0.48,0-0.64,0.72-0.64,1.76s0.16,2.48,0.16,3.84v12c0,3.2,0,6.4-4.8,6.4h-4c-4.8,0-4.8-3.2-4.8-6.4v-44c0-3.2,0-6.4,4.8-6.4h4
		c4.8,0,4.8,3.2,4.8,6.4c0,14.16,0,14.16,0.4,14.16c2.4,0,4.64-9.44,5.44-11.36c2.64-6.32,2.88-9.2,6.96-9.2h4.64
		c2.72,0,4.96,0,4.96,2.24c0,0.96-0.4,2.32-1.36,4.24c-2.56,5.28-9.6,17.92-9.6,18.4c0,0.32,0.32,0.8,0.88,2
		C281.76,340.54,291.68,362.22,291.92,366.3z"/>
	<path class="st4" d="M307.76,362.3c0,3.2,0,6.4-4.8,6.4h-4c-4.8,0-4.8-3.2-4.8-6.4v-44c0-3.2,0-6.4,4.8-6.4h4
		c4.8,0,4.8,3.2,4.8,6.4V362.3z"/>
	<path class="st4" d="M334.56,357.1c3.36,0,3.76,1.76,3.76,4.16v1.04c0,3.2,0,6.4-4.8,6.4h-18.08c-4.8,0-4.8-3.2-4.8-6.4v-44
		c0-3.2,0-6.4,4.8-6.4h4c4.8,0,4.8,3.2,4.8,6.4v34.48c0,1.92,0,4.4,2.48,4.48C330.96,357.26,332.88,357.1,334.56,357.1z"/>
	<path class="st4" d="M364.08,357.1c3.36,0,3.76,1.76,3.76,4.16v1.04c0,3.2,0,6.4-4.8,6.4h-18.08c-4.8,0-4.8-3.2-4.8-6.4v-44
		c0-3.2,0-6.4,4.8-6.4h4c4.8,0,4.8,3.2,4.8,6.4v34.48c0,1.92,0,4.4,2.48,4.48C360.48,357.26,362.4,357.1,364.08,357.1z"/>
	<path class="st4" d="M383.28,354.06c0.16,1.76,1.76,2.64,3.36,2.64c4.56,0,6.08-0.16,7.76-0.16c3.36,0,4.4,0.96,4.4,3.36v5.6
		c0,2.4-0.8,3.2-3.2,3.2h-21.12c-4.8,0-4.8-4.8-4.8-6.4v-44c0-3.2,0-6.4,4.8-6.4h20.64c2,0,3.76,0.8,3.76,2.4v6.8
		c0,1.92-1.6,2-3.6,2c-3.12,0-5.6-0.16-7.6-0.16c-4.4,0-4.4,1.6-4.4,4.16c0,5.2,0,6.56,4,6.56c4.96,0,5.76-0.16,7.6-0.16
		c2.8,0,2.96,2.8,2.96,3.68v5.12c0,2.4-1.68,2.56-3.68,2.56c-4.08,0-6.64-0.16-8.32-0.16c-2.56,0-2.56,1.12-2.56,3.76V354.06z"/>
	<path class="st4" d="M422,311.9c11.92,0,15.28,8.56,15.28,18c0,5.76-0.08,9.44-4.64,13.28c-2.24,1.92-3.68,0.8-3.68,3.84
		c0,3.28,1.04,7.28,3.68,7.28c1.44,0,2.32-0.4,2.56-0.4c2.56,0,2.96,2.16,2.96,5.84c0,1.76-0.08,3.92-0.08,6.32
		c0,1.6-0.64,3.04-4.8,3.04c-7.36,0-11.12-5.44-12.64-11.36c-1.92-7.44-4.32-8.72-4.8-8.72c-0.64,0-0.64,1.28-0.64,1.92v11.36
		c0,3.2,0,6.4-4.8,6.4h-5.6c-3.2,0-3.2-3.2-3.2-6.4v-44c0-3.2,0-6.4,4.8-6.4H422z M415.12,326.14c0,1.04,0.08,2.88,0.08,4.56
		c0,1.6-0.08,3.04-0.08,4c0,2.64,0.48,3.12,3.68,3.12c3.6,0,4.4-3.52,4.4-7.12c0-3.6-0.8-8-4.4-8
		C415.6,322.7,415.12,323.26,415.12,326.14z"/>
</g>
<g>
	<path d="M98.07,429.59v-1.35c0-0.47,0.28-0.79,0.74-0.79c2.56-0.37,4.09-2.23,4.09-5.39c0-3.16-1.77-4.56-5.81-5.16
		c-5.02-0.6-8-2.98-8.04-7.9c-0.05-4.65,2.46-7.58,6.46-7.9c0.42-0.05,0.74,0.23,0.74,0.7v1.35c0,0.46-0.33,0.79-0.74,0.84
		c-2.14,0.42-3.39,2.14-3.35,5.12c0.05,3.53,2.37,4.65,5.49,5.07c5.67,0.65,8.42,3.49,8.42,7.9c0,4.88-2.7,7.95-7.25,8.23
		C98.35,430.34,98.07,430.06,98.07,429.59z M91.15,430.34c-0.79,0-1.39-0.56-1.39-1.35v-0.14c0-0.79,0.6-1.35,1.39-1.35h4.37
		c0.42,0,0.74,0.28,0.74,0.74v1.35c0,0.46-0.33,0.74-0.74,0.74H91.15z M98.82,403.88c-0.46,0-0.74-0.28-0.74-0.74v-1.35
		c0-0.46,0.28-0.74,0.74-0.74h4.46c0.79,0,1.35,0.56,1.35,1.35v0.14c0,0.79-0.56,1.35-1.35,1.35H98.82z"/>
	<path d="M118.02,429.64c-0.23,0.74-0.93,1.07-1.67,0.74l-1.49-0.7c-2.09-0.93-3.3-2.09-3.3-5.72l0.05-24.36
		c0-0.79,0.56-1.35,1.35-1.35h0.46c0.79,0,1.35,0.56,1.35,1.35v24.36c0,1.91,0.46,2.42,1.72,3.07l0.84,0.42
		c0.7,0.33,1.07,1.12,0.79,1.86L118.02,429.64z"/>
	<path d="M137.69,430.48l-0.19,0.05c-0.74,0.28-1.53,0-1.86-0.74c-0.6-1.35-1.02-2.23-1.26-2.98c-1.3,2.23-3.44,3.53-6.09,3.53
		h-1.12c-3.58,0-6.09-2.14-6.09-5.67v-0.93c0-3.44,2.56-5.86,6.97-5.86h4.14c0.09,0,0.14,0.28,0.14,0.74v0.88
		c0,0.42-0.28,0.7-0.7,0.7h-2.93c-2.93,0-4.74,1.39-4.74,3.63v0.65c0,2.09,1.53,3.35,3.53,3.35h1.12c3.02,0,5.3-2.51,5.3-6.7v-5.58
		c0-3.07-1.67-4.83-4.74-4.83h-5.02c-0.79,0-1.35-0.56-1.35-1.35c0-0.79,0.56-1.35,1.35-1.35h5.02c5.02,0,7.67,2.56,7.67,7.44v8.55
		c0,1.72,0.19,2.19,1.49,4.74C138.71,429.45,138.43,430.15,137.69,430.48z"/>
	<path d="M148.52,427.59c-0.14,0.42-0.37,0.42-0.51,0l-6.56-18.23c-0.23-0.74,0.14-1.35,0.93-1.39l0.56-0.09
		c0.74-0.05,1.53,0.42,1.77,1.16l4.93,14.13c0.14,0.42,0.14,0.98,0,1.39L148.52,427.59z M158.56,407.93
		c0.74,0.09,1.16,0.65,0.88,1.4l-7.67,22.92c-1.39,4.09-2.37,6-6.18,6h-2c-0.79,0-1.35-0.56-1.35-1.3c0-0.79,0.56-1.35,1.35-1.4
		h1.67c1.81-0.05,2.46-1.25,3.16-3.35l7.81-23.15c0.28-0.74,1.02-1.21,1.81-1.16L158.56,407.93z M142.25,436.89v0.05V436.89z"/>
	<path d="M182.37,429.03c-0.23,0.74-0.98,1.3-1.77,1.3h-0.33c-0.79,0-1.53-0.56-1.77-1.3l-5.62-19.62
		c-0.19-0.79,0.23-1.39,1.02-1.49l0.46-0.05c0.79-0.05,1.49,0.42,1.72,1.21l4.56,16.6l4.74-16.37c0.19-0.74,0.93-1.3,1.72-1.3h0.93
		c0.42,0,0.65,0.28,0.51,0.7L182.37,429.03z M188.32,416.11c-0.14-0.42-0.14-1.02,0-1.44l1.02-3.39c0.14-0.42,0.33-0.42,0.42,0
		l4.18,14.41l4.56-16.6c0.19-0.79,0.93-1.26,1.72-1.21l0.56,0.05c0.79,0.09,1.21,0.7,0.98,1.44l-5.72,19.67
		c-0.23,0.74-0.93,1.3-1.72,1.3h-0.37c-0.79,0-1.54-0.56-1.77-1.3L188.32,416.11z"/>
	<path d="M208.18,430.34c-0.79,0-1.4-0.56-1.4-1.35V399.6c0-0.79,0.6-1.35,1.4-1.35h0.46c0.79,0,1.35,0.56,1.35,1.35v29.38
		c0,0.79-0.56,1.35-1.35,1.35H208.18z M221.71,430.34c-0.79,0-1.35-0.56-1.35-1.35v-13.44c0-2.98-2-4.79-4.51-4.79
		c-1.25,0-2.05,0.19-2.98,0.6c-0.65,0.23-1.12-0.09-1.35-0.88c-0.23-0.74,0-1.3,0.65-1.58c1.16-0.56,2.65-0.93,4.23-0.93
		c4.32,0,7.11,3.25,7.11,7.72v13.3c0,0.79-0.56,1.35-1.35,1.35H221.71z"/>
	<path d="M244.91,430.48l-0.19,0.05c-0.74,0.28-1.53,0-1.86-0.74c-0.6-1.35-1.02-2.23-1.26-2.98c-1.3,2.23-3.44,3.53-6.09,3.53
		h-1.12c-3.58,0-6.09-2.14-6.09-5.67v-0.93c0-3.44,2.56-5.86,6.97-5.86h4.14c0.09,0,0.14,0.28,0.14,0.74v0.88
		c0,0.42-0.28,0.7-0.7,0.7h-2.93c-2.93,0-4.74,1.39-4.74,3.63v0.65c0,2.09,1.53,3.35,3.53,3.35h1.12c3.02,0,5.3-2.51,5.3-6.7v-5.58
		c0-3.07-1.67-4.83-4.74-4.83h-5.02c-0.79,0-1.35-0.56-1.35-1.35c0-0.79,0.56-1.35,1.35-1.35h5.02c5.02,0,7.67,2.56,7.67,7.44v8.55
		c0,1.72,0.19,2.19,1.49,4.74C245.93,429.45,245.65,430.15,244.91,430.48z"/>
	<path d="M259.6,408.02c0.79,0,1.39,0.56,1.39,1.35c0,0.79-0.6,1.35-1.39,1.35h-9.76c-0.79,0-1.39-0.56-1.39-1.35
		c0-0.79,0.6-1.35,1.39-1.35h2.14v-5.63c0-0.79,0.56-1.35,1.35-1.35h0.46c0.79,0,1.35,0.56,1.35,1.35v5.63H259.6z M259.65,427.64
		c0.7,0.37,0.98,1.16,0.65,1.86l-0.14,0.28c-0.37,0.7-1.12,0.98-1.81,0.6l-2.23-1.12c-2.56-1.3-4.14-2.37-4.14-7.25v-8.88
		c0-0.47,0.28-0.74,0.74-0.74h1.67c0.46,0,0.74,0.28,0.74,0.74v8.69c0,3.02,0.46,3.81,2.98,5.07L259.65,427.64z"/>
	<path d="M281.36,427.59c-0.14,0.42-0.37,0.42-0.51,0l-6.56-18.23c-0.23-0.74,0.14-1.35,0.93-1.39l0.56-0.09
		c0.74-0.05,1.53,0.42,1.77,1.16l4.93,14.13c0.14,0.42,0.14,0.98,0,1.39L281.36,427.59z M291.4,407.93c0.74,0.09,1.16,0.65,0.88,1.4
		l-7.67,22.92c-1.39,4.09-2.37,6-6.18,6h-2c-0.79,0-1.35-0.56-1.35-1.3c0-0.79,0.56-1.35,1.35-1.4h1.67
		c1.81-0.05,2.46-1.25,3.16-3.35l7.81-23.15c0.28-0.74,1.02-1.21,1.81-1.16L291.4,407.93z M275.08,436.89v0.05V436.89z"/>
	<path d="M303.4,409.97c0,0.42-0.33,0.79-0.74,0.84c-2.14,0.37-3.67,2.28-3.67,5.11v6.6c0,2.84,1.53,4.74,3.67,5.16
		c0.42,0.05,0.74,0.37,0.74,0.79v1.21c0,0.47-0.33,0.74-0.74,0.74c-4.18-0.33-6.83-3.21-6.83-7.9v-6.6c0-4.7,2.65-7.58,6.83-7.86
		c0.42-0.05,0.74,0.23,0.74,0.7V409.97z M305.03,408.76c0-0.46,0.33-0.74,0.74-0.7c4.18,0.28,6.83,3.16,6.83,7.86v6.6
		c0,4.7-2.65,7.58-6.83,7.9c-0.42,0-0.74-0.28-0.74-0.74v-1.21c0-0.42,0.33-0.74,0.74-0.79c2.14-0.42,3.63-2.32,3.63-5.16v-6.6
		c0-2.84-1.49-4.74-3.63-5.11c-0.42-0.05-0.74-0.42-0.74-0.84V408.76z"/>
	<path d="M324.93,429.68c0,0.47-0.28,0.74-0.74,0.74c-3.77-0.33-6.51-3.16-6.51-7.53v-13.53c0-0.79,0.6-1.35,1.35-1.35h0.46
		c0.79,0,1.39,0.56,1.39,1.35v13.53c0,2.84,1.35,4.42,3.3,4.79c0.46,0.05,0.74,0.37,0.74,0.79V429.68z M326.6,429.68v-1.21
		c0-0.42,0.28-0.74,0.74-0.79c1.95-0.37,3.39-1.95,3.39-4.79v-13.53c0-0.79,0.56-1.35,1.35-1.35h0.46c0.79,0,1.35,0.56,1.35,1.35
		v13.53c0,4.37-2.74,7.21-6.56,7.53C326.88,430.43,326.6,430.15,326.6,429.68z"/>
	<path d="M356.5,428.29c0-0.42,0.33-0.79,0.74-0.88c1.53-0.42,2.46-1.67,2.46-3.35c0-2.05-1.3-2.93-4.74-3.72
		c-3.95-0.88-6.14-2.28-6.18-6.23c-0.05-3.49,2.28-5.76,5.49-6.04c0.42-0.05,0.74,0.23,0.74,0.7v1.86c0,0.09-0.33,0.23-0.74,0.28
		c-1.4,0.37-2.46,1.49-2.42,3.16c0,2.46,1.91,3.02,4.74,3.72c4.37,1.12,6.23,3.02,6.23,6.09c0,4.14-2.56,6.42-6.18,6.46
		c-0.09,0-0.14-0.28-0.14-0.74V428.29z M354.22,427.55c0.42,0,0.74,0.33,0.74,0.74v1.91c0,0.09-0.33,0.14-0.74,0.14h-3.35
		c-0.79,0-1.39-0.56-1.39-1.35v-0.05c0-0.79,0.6-1.4,1.39-1.4H354.22z M356.78,410.81c-0.09,0-0.14-0.33-0.14-0.74v-1.3
		c0-0.46,0.33-0.74,0.74-0.74h3.02c0.79,0,1.35,0.56,1.35,1.35v0.05c0,0.79-0.56,1.39-1.35,1.39H356.78z"/>
	<path d="M383.05,430.48l-0.19,0.05c-0.74,0.28-1.53,0-1.86-0.74c-0.6-1.35-1.02-2.23-1.26-2.98c-1.3,2.23-3.44,3.53-6.09,3.53
		h-1.12c-3.58,0-6.09-2.14-6.09-5.67v-0.93c0-3.44,2.56-5.86,6.97-5.86h4.14c0.09,0,0.14,0.28,0.14,0.74v0.88
		c0,0.42-0.28,0.7-0.7,0.7h-2.93c-2.93,0-4.74,1.39-4.74,3.63v0.65c0,2.09,1.53,3.35,3.53,3.35h1.12c3.02,0,5.3-2.51,5.3-6.7v-5.58
		c0-3.07-1.67-4.83-4.74-4.83h-5.02c-0.79,0-1.35-0.56-1.35-1.35c0-0.79,0.56-1.35,1.35-1.35h5.02c5.02,0,7.67,2.56,7.67,7.44v8.55
		c0,1.72,0.19,2.19,1.49,4.74C384.07,429.45,383.79,430.15,383.05,430.48z"/>
	<path d="M393.88,427.59c-0.14,0.42-0.37,0.42-0.51,0l-6.56-18.23c-0.23-0.74,0.14-1.35,0.93-1.39l0.56-0.09
		c0.74-0.05,1.53,0.42,1.77,1.16l4.93,14.13c0.14,0.42,0.14,0.98,0,1.39L393.88,427.59z M403.92,407.93
		c0.74,0.09,1.16,0.65,0.88,1.4l-7.67,22.92c-1.39,4.09-2.37,6-6.18,6h-2c-0.79,0-1.35-0.56-1.35-1.3c0-0.79,0.56-1.35,1.35-1.4
		h1.67c1.81-0.05,2.46-1.25,3.16-3.35l7.81-23.15c0.28-0.74,1.02-1.21,1.81-1.16L403.92,407.93z M387.61,436.89v0.05V436.89z"/>
	<path d="M407.41,430.43c-0.93,0-1.63-0.65-1.63-1.58v-1.02c0-0.93,0.7-1.63,1.63-1.63h1.02c0.88,0,1.58,0.7,1.58,1.63v1.02
		c0,0.93-0.7,1.58-1.58,1.58H407.41z"/>
</g>
<g>
	<path class="st5" d="M301.68,308.9c-67.11,0-133.91,0-200.72,0c0-99.36,0-198.72,0-298.07c99.36,0,198.72,0,298.07,0
		c0,99.36,0,198.72,0,298.07C366.69,308.9,334.33,308.9,301.68,308.9z M198.26,87.37c-0.52,0.3-1.08,0.55-1.54,0.92
		c-13.66,10.8-24.22,23.95-30.3,40.41c-1.06,2.86-2.54,5.71-2.41,8.88c0.12,3.04,2.5,5.25,5.64,5.59c3.22,0.35,5.73-1.38,6.95-5.26
		c1.92-6.12,4.46-11.92,7.78-17.4c7.81-12.9,18.61-22.53,31.94-29.46c4.35-2.26,9.13-3.38,13.56-5.4c3.15-1.43,4.29-4.4,3.14-7.68
		c-1.09-3.11-3.78-4.69-7.06-3.85C216.01,76.68,206.91,81.07,198.26,87.37z M323.54,130.47c1.1,3.09,2.03,6.27,3.36,9.26
		c1.44,3.22,4.84,4.23,8.42,2.86c2.45-0.94,3.89-4.05,3.15-7.01c-1.14-4.55-2.83-8.9-4.82-13.14
		c-6.12-13.05-14.97-23.95-26.24-32.88c-9.17-7.27-19.44-12.46-30.75-15.5c-2.71-0.73-5.04,0.37-6.49,2.62
		c-1.43,2.23-1.39,4.67,0.19,7.02c1.29,1.92,3.32,2.45,5.29,3.06c8.45,2.65,16.19,6.72,23.2,12.09
		C309.66,107.14,317.96,117.47,323.54,130.47z M319.5,221.23c8.88-10.01,15.32-21.37,18.87-34.3c0.99-3.62-0.64-6.49-4-7.58
		c-3.37-1.1-6.45,0.24-7.68,3.73c-2.69,7.63-5.67,15.12-10.35,21.78c-7.03,10.02-15.64,18.36-26.38,24.37
		c-5.15,2.88-10.6,4.99-16.21,6.84c-3.91,1.29-5.31,4.5-4.16,8c1.11,3.41,3.86,4.76,7.91,3.79c6.34-1.53,12.24-4.22,17.93-7.31
		C304.48,235.63,312.29,229.13,319.5,221.23z M227.43,248.32c2.18-0.41,4.3-0.77,5.35-3.22c1.89-4.43-0.1-8.16-5.38-9.67
		c-9.54-2.73-18-7.5-25.61-13.78c-12-9.9-20.54-22.17-25.1-37.14c-0.63-2.08-1.58-4.12-3.92-5.01c-2.59-0.99-4.9-0.61-6.92,1.27
		c-2.45,2.28-2,5.05-1.11,7.78c4.04,12.39,10.19,23.55,19.04,33.22C195.65,234.74,209.77,243.97,227.43,248.32z M257.42,257.52
		c0-13.51,0-27.02,0-40.53c0-2.24-0.2-4.47-2.27-5.86c-1.95-1.31-3.88-2.15-6.4-0.85c-2.8,1.46-3.77,3.6-3.77,6.54
		c0.02,19.11,0,38.23,0.02,57.34c0.01,4.62,2.21,7.15,6.16,7.26c3.95,0.11,6.22-2.42,6.25-7.1
		C257.45,268.93,257.42,263.52,257.42,257.52z M257.42,94.06c0-15.42,0.02-30.83-0.02-46.25c-0.01-4.3-2.41-7.03-6.03-7.11
		c-3.7-0.08-6.37,2.81-6.37,7.11c-0.03,19.22-0.04,38.44,0.01,57.66c0.01,4.39,2.57,7.11,6.39,7.1c3.62-0.01,5.93-2.7,6-7.11
		C257.46,101.87,257.42,98.26,257.42,94.06z M145.74,154.85c-2.8,0-5.61-0.06-8.41,0.03c-2.64,0.09-4.88,1.04-5.93,3.72
		c-1.83,4.7,1.06,8.63,6.51,8.66c11.21,0.07,22.42,0.03,33.63,0.03c8.01,0,16.01,0.02,24.02-0.03c2.83-0.02,5.38-0.75,6.6-3.69
		c1.91-4.6-1.29-8.7-6.88-8.71C178.96,154.83,162.65,154.85,145.74,154.85z M345.85,167.28c6.3,0,12.61,0.04,18.91-0.03
		c2.57-0.03,5.01-0.55,6.17-3.31c2.05-4.85-0.8-9.05-6.32-9.07c-15.81-0.06-31.61-0.02-47.42-0.03c-3.7,0-7.41-0.13-11.1,0.05
		c-5.31,0.26-7.86,5.43-4.99,9.85c1.44,2.21,3.68,2.52,6.03,2.53C319.84,167.28,332.55,167.28,345.85,167.28z"/>
	<path d="M198.43,87.24c8.48-6.17,17.58-10.55,27.52-13.11c3.27-0.84,5.97,0.74,7.06,3.85c1.15,3.28,0.02,6.25-3.14,7.68
		c-4.43,2.01-9.22,3.14-13.56,5.4c-13.32,6.92-24.13,16.55-31.94,29.46c-3.32,5.48-5.86,11.28-7.78,17.4
		c-1.22,3.88-3.73,5.61-6.95,5.26c-3.14-0.34-5.51-2.55-5.64-5.59c-0.13-3.17,1.35-6.02,2.41-8.88
		c6.08-16.46,16.64-29.61,30.3-40.41C197.18,87.92,197.74,87.67,198.43,87.24z"/>
	<path d="M323.43,130.26c-5.48-12.8-13.78-23.12-24.59-31.41c-7-5.37-14.74-9.44-23.2-12.09c-1.97-0.62-4-1.14-5.29-3.06
		c-1.57-2.34-1.62-4.78-0.19-7.02c1.45-2.25,3.78-3.35,6.49-2.62c11.31,3.04,21.57,8.22,30.75,15.5
		c11.27,8.93,20.11,19.83,26.24,32.88c1.99,4.24,3.68,8.59,4.82,13.14c0.74,2.96-0.7,6.07-3.15,7.01c-3.58,1.37-6.99,0.36-8.42-2.86
		C325.57,136.74,324.64,133.57,323.43,130.26z"/>
	<path d="M319.37,221.4c-7.08,7.73-14.89,14.23-23.93,19.14c-5.69,3.09-11.59,5.78-17.93,7.31c-4.05,0.98-6.8-0.38-7.91-3.79
		c-1.15-3.51,0.25-6.71,4.16-8c5.6-1.85,11.06-3.96,16.21-6.84c10.75-6.01,19.35-14.35,26.38-24.37
		c4.68-6.67,7.65-14.15,10.35-21.78c1.23-3.49,4.31-4.83,7.68-3.73c3.36,1.1,4.99,3.97,4,7.58
		C334.82,199.86,328.39,211.22,319.37,221.4z"/>
	<path d="M227.19,248.3c-17.42-4.33-31.53-13.56-43.41-26.53c-8.86-9.67-15-20.83-19.04-33.22c-0.89-2.73-1.34-5.5,1.11-7.78
		c2.03-1.89,4.33-2.26,6.92-1.27c2.34,0.89,3.29,2.93,3.92,5.01c4.56,14.97,13.1,27.24,25.1,37.14c7.6,6.28,16.06,11.05,25.61,13.78
		c5.28,1.51,7.28,5.24,5.38,9.67C231.73,247.55,229.61,247.91,227.19,248.3z"/>
	<path class="st4" d="M257.42,257.82c0,5.7,0.03,11.11-0.01,16.51c-0.03,4.67-2.29,7.2-6.25,7.1c-3.95-0.11-6.16-2.63-6.16-7.26
		c-0.02-19.11,0-38.23-0.02-57.34c0-2.94,0.97-5.08,3.77-6.54c2.51-1.31,4.44-0.46,6.4,0.85c2.07,1.39,2.27,3.61,2.27,5.86
		C257.42,230.5,257.42,244.01,257.42,257.82z"/>
	<path class="st4" d="M257.42,94.36c0,3.9,0.04,7.51-0.02,11.11c-0.07,4.41-2.38,7.1-6,7.11c-3.82,0.01-6.38-2.72-6.39-7.1
		c-0.04-19.22-0.04-38.44-0.01-57.66c0.01-4.3,2.68-7.19,6.37-7.11c3.62,0.08,6.02,2.81,6.03,7.11
		C257.44,63.23,257.42,78.64,257.42,94.36z"/>
	<path class="st4" d="M146.04,154.85c16.61,0,32.92-0.02,49.24,0.01c5.6,0.01,8.79,4.11,6.88,8.71c-1.22,2.93-3.77,3.67-6.6,3.69
		c-8.01,0.05-16.01,0.03-24.02,0.03c-11.21,0-22.42,0.04-33.63-0.03c-5.45-0.03-8.34-3.96-6.51-8.66c1.05-2.68,3.29-3.62,5.93-3.72
		C140.13,154.78,142.93,154.85,146.04,154.85z"/>
	<path class="st4" d="M345.55,167.28c-13.01,0-25.71,0-38.42-0.01c-2.35,0-4.6-0.32-6.03-2.53c-2.88-4.42-0.33-9.59,4.99-9.85
		c3.69-0.18,7.4-0.05,11.1-0.05c15.81,0,31.61-0.03,47.42,0.03c5.52,0.02,8.37,4.22,6.32,9.07c-1.17,2.76-3.6,3.28-6.17,3.31
		C358.46,167.32,352.15,167.28,345.55,167.28z"/>
	<path d="M303.74,134.97c-3.48-8.14-8.76-14.7-15.64-19.98c-4.45-3.42-9.37-6-14.75-7.69c-1.25-0.39-2.54-0.73-3.36-1.95
		c-1-1.49-1.03-3.04-0.12-4.46c0.92-1.43,2.4-2.13,4.13-1.67c7.19,1.93,13.72,5.23,19.55,9.86c7.17,5.68,12.79,12.61,16.69,20.91
		c1.27,2.7,2.34,5.46,3.07,8.36c0.47,1.88-0.44,3.86-2,4.46c-2.28,0.87-4.44,0.23-5.36-1.82
		C305.1,139.09,304.51,137.07,303.74,134.97z"/>
	<path d="M290.9,140.77c-2.19-5.13-5.52-9.27-9.85-12.59c-2.81-2.15-5.91-3.78-9.3-4.85c-0.79-0.25-1.6-0.46-2.12-1.23
		c-0.63-0.94-0.65-1.92-0.08-2.81c0.58-0.9,1.52-1.34,2.6-1.05c4.53,1.22,8.65,3.3,12.32,6.21c4.52,3.58,8.06,7.95,10.52,13.18
		c0.8,1.7,1.48,3.44,1.93,5.27c0.3,1.19-0.28,2.43-1.26,2.81c-1.44,0.55-2.8,0.14-3.38-1.14
		C291.75,143.37,291.38,142.09,290.9,140.77z"/>
	<path d="M225.66,108.68c-8.14,3.48-14.7,8.76-19.98,15.64c-3.42,4.45-6,9.37-7.69,14.75c-0.39,1.25-0.73,2.54-1.95,3.36
		c-1.49,1-3.04,1.03-4.46,0.12c-1.43-0.92-2.13-2.4-1.67-4.13c1.93-7.19,5.23-13.72,9.86-19.55c5.68-7.17,12.61-12.79,20.91-16.69
		c2.7-1.27,5.46-2.34,8.36-3.07c1.88-0.47,3.86,0.44,4.46,2c0.87,2.28,0.23,4.44-1.82,5.36
		C229.78,107.32,227.76,107.91,225.66,108.68z"/>
	<path d="M231.47,121.52c-5.13,2.19-9.27,5.52-12.59,9.85c-2.15,2.81-3.78,5.91-4.85,9.3c-0.25,0.79-0.46,1.6-1.23,2.12
		c-0.94,0.63-1.92,0.65-2.81,0.08c-0.9-0.58-1.34-1.52-1.05-2.6c1.22-4.53,3.3-8.65,6.21-12.32c3.58-4.52,7.95-8.06,13.18-10.52
		c1.7-0.8,3.44-1.48,5.27-1.93c1.19-0.3,2.43,0.28,2.81,1.26c0.55,1.44,0.14,2.8-1.14,3.38
		C234.06,120.66,232.79,121.03,231.47,121.52z"/>
	<path d="M278.87,213.57c8.14-3.48,14.7-8.76,19.98-15.64c3.42-4.45,6-9.37,7.69-14.75c0.39-1.25,0.73-2.54,1.95-3.36
		c1.49-1,3.04-1.03,4.46-0.12c1.43,0.92,2.13,2.4,1.67,4.13c-1.93,7.19-5.23,13.72-9.86,19.55c-5.68,7.17-12.61,12.79-20.91,16.69
		c-2.7,1.27-5.46,2.34-8.36,3.07c-1.88,0.47-3.86-0.44-4.46-2c-0.87-2.28-0.23-4.44,1.82-5.36
		C274.75,214.93,276.77,214.34,278.87,213.57z"/>
	<path d="M273.06,200.73c5.13-2.19,9.27-5.52,12.59-9.85c2.15-2.81,3.78-5.91,4.85-9.3c0.25-0.79,0.46-1.6,1.23-2.12
		c0.94-0.63,1.92-0.65,2.81-0.08c0.9,0.58,1.34,1.52,1.05,2.6c-1.22,4.53-3.3,8.65-6.21,12.32c-3.58,4.52-7.95,8.06-13.18,10.52
		c-1.7,0.8-3.44,1.48-5.27,1.93c-1.19,0.3-2.43-0.28-2.81-1.26c-0.55-1.44-0.14-2.8,1.14-3.38
		C270.47,201.58,271.74,201.21,273.06,200.73z"/>
	<path d="M196.39,188.7c3.48,8.14,8.76,14.7,15.64,19.98c4.45,3.42,9.37,6,14.75,7.69c1.25,0.39,2.54,0.73,3.36,1.95
		c1,1.49,1.03,3.04,0.12,4.46c-0.92,1.43-2.4,2.13-4.13,1.67c-7.19-1.93-13.72-5.23-19.55-9.86c-7.17-5.68-12.79-12.61-16.69-20.91
		c-1.27-2.7-2.34-5.46-3.07-8.36c-0.47-1.88,0.44-3.86,2-4.46c2.28-0.87,4.44-0.23,5.36,1.82
		C195.04,184.58,195.63,186.6,196.39,188.7z"/>
	<path d="M209.24,182.89c2.19,5.13,5.52,9.27,9.85,12.59c2.81,2.15,5.91,3.78,9.3,4.85c0.79,0.25,1.6,0.46,2.12,1.23
		c0.63,0.94,0.65,1.92,0.08,2.81c-0.58,0.9-1.52,1.34-2.6,1.05c-4.53-1.22-8.65-3.3-12.32-6.21c-4.52-3.58-8.06-7.95-10.52-13.18
		c-0.8-1.7-1.48-3.44-1.93-5.27c-0.3-1.19,0.28-2.43,1.26-2.81c1.44-0.55,2.8-0.14,3.38,1.14
		C208.38,180.3,208.75,181.57,209.24,182.89z"/>
</g>
</svg>
